<svg xmlns="http://www.w3.org/2000/svg" viewBox="0 0 32 32" width="32" height="32">
  <rect width="32" height="32" rx="6" fill="#1a365d"/>
  <g fill="#ffffff" transform="translate(7,4)">
    <!-- Base -->
    <rect x="0" y="21" width="18" height="2.5" rx="1"/>
    <rect x="1" y="18.5" width="16" height="3" rx="0.5"/>
    <!-- Knight body -->
    <path d="M4 18.5c0-3 .5-5.5 2-7.5L4.5 9.5 3 10.5l-1-1.5 3-2.5C6.5 4 8.5 2.5 11 2c1.5-.3 3 0 4 .8 2 1.5 2.5 4 2.5 6.2 0 3-1 5.5-2.5 7.5-.5.7-1 1.3-1.5 2h-9.5z"/>
    <!-- Eye -->
    <circle cx="9" cy="7.5" r="1.3" fill="#1a365d"/>
    <!-- Nostril -->
    <circle cx="5.5" cy="11" r="0.7" fill="#1a365d"/>
  </g>
</svg>
