<svg xmlns="http://www.w3.org/2000/svg" viewBox="0 0 32 32" width="32" height="32">
  <rect width="32" height="32" rx="6" fill="#1a365d"/>
  <path fill="#ffffff" d="
    M 9 27 h 14 v -2.5 h -14 z
    M 10.5 24.5 h 11 l 0.5 -1 h -12 z
    M 12 23.5 h 8 c 0 -3 -0.5 -5.5 -1.5 -8
    l 1.5 -0.5 c 1 -0.8 1.8 -1.8 2.2 -3
    c 0.4 -1.2 0.3 -2.5 -0.3 -3.5
    c -0.5 -0.8 -1.2 -1.3 -2 -1.5
    l 0.1 -1.5 l -1.5 -1
    l -1 1.5
    c -0.8 -0.2 -1.5 -0.1 -2.2 0.2
    c -1.2 0.5 -2 1.3 -2.8 2.5
    c -0.6 1 -1 2.2 -1 3.5
    c 0 1.2 0.3 2.3 0.8 3.2
    c 0.5 0.9 1.2 1.7 2 2.3
    c -0.8 2 -1.3 4 -1.5 6.3 z
    M 13.5 11 a 1.2 1.2 0 1 0 2.4 0 a 1.2 1.2 0 1 0 -2.4 0
    M 10.5 14.5 c 0.3 0.2 0.8 0.2 1.2 0 c 0.3 -0.2 0.5 -0.5 0.5 -0.8
    l -0.7 -0.5 c -0.4 0.1 -0.7 0.3 -0.9 0.5 z
  "/>
</svg>
